<?xml version="1.0" encoding="UTF-8" standalone="no"?>
<!-- Created with Inkscape (http://www.inkscape.org/) -->

<svg
   width="47.738049mm"
   height="13.619491mm"
   viewBox="0 0 47.738049 13.619491"
   version="1.1"
   id="svg1"
   inkscape:export-filename="../Neu_neu/Blau+Claim_transparent.svg"
   inkscape:export-xdpi="96"
   inkscape:export-ydpi="96"
   inkscape:version="1.4.2 (ebf0e940, 2025-05-08)"
   sodipodi:docname="Blau_ohne_Claim_transparent.svg"
   xmlns:inkscape="http://www.inkscape.org/namespaces/inkscape"
   xmlns:sodipodi="http://sodipodi.sourceforge.net/DTD/sodipodi-0.dtd"
   xmlns="http://www.w3.org/2000/svg"
   xmlns:svg="http://www.w3.org/2000/svg">
  <sodipodi:namedview
     id="namedview1"
     pagecolor="#ffffff"
     bordercolor="#000000"
     borderopacity="0.25"
     inkscape:showpageshadow="2"
     inkscape:pageopacity="0.0"
     inkscape:pagecheckerboard="0"
     inkscape:deskcolor="#d1d1d1"
     inkscape:document-units="mm"
     inkscape:export-bgcolor="#aaaaaa00"
     inkscape:zoom="3.1750796"
     inkscape:cx="94.643297"
     inkscape:cy="46.455528"
     inkscape:window-width="1440"
     inkscape:window-height="900"
     inkscape:window-x="0"
     inkscape:window-y="0"
     inkscape:window-maximized="0"
     inkscape:current-layer="layer1" />
  <defs
     id="defs1" />
  <g
     inkscape:label="Ebene 1"
     inkscape:groupmode="layer"
     id="layer1"
     transform="translate(-50.22171,-84.258838)">
    <path
       style="font-size:19.008px;font-family:Inter, Manrope, system-ui, '-apple-system', 'Segoe UI', Roboto, 'Helvetica Neue', Arial, sans-serif;-inkscape-font-specification:'Inter, Manrope, system-ui, -apple-system, Segoe UI, Roboto, Helvetica Neue, Arial, sans-serif, Normal';letter-spacing:0px;fill:#203361;stroke-width:0.264"
       d="m 68.738148,84.44489 v 13.571712 h 1.80576 v -6.215616 h 7.147007 v 6.215616 h 1.80576 V 84.44489 h -1.80576 v 5.835456 H 70.543908 V 84.44489 Z m 13.799809,0 v 13.571712 h 1.80576 V 84.44489 Z"
       id="text1-8-9-1-2-0-7"
       class="brand"
       transform="scale(1.0022081,0.99779677)"
       aria-label="HI" />
    <path
       id="rect1-6-5-8"
       style="fill:#254c90;stroke-width:0.0365315"
       class="accent-fill"
       d="m 50.22171,84.263702 h 1.689894 v 13.53502 H 50.22171 Z" />
    <path
       id="rect1-9-6-9-0"
       style="fill:#254c90;stroke-width:0.0310801"
       class="accent-fill"
       d="m 65.614569,88.000235 a 1.3663932,1.3798021 0 0 1 -1.271757,1.041797 v 8.755537 h 1.689819 v -9.797334 z" />
    <path
       class="accent"
       d="m 55.233081,97.001996 -2.21e-4,-0.5003 9.53e-4,-8.17056 0.0011,-1.09167 3.959334,5.1116 5.328088,-6.52834"
       id="path2-1-5-0"
       sodipodi:nodetypes="cccccc"
       style="fill:none;stroke:#254c90;stroke-width:1.60275;stroke-linecap:square;stroke-linejoin:round;stroke-dasharray:none;stroke-opacity:1;paint-order:normal" />
    <path
       id="circle2-6-5-6"
       style="fill:#254c90;stroke-width:0.125446"
       class="accent-fill"
       d="m 66.100001,85.639999 a 1.38,1.3798021 0 0 1 -1.38,1.379802 1.38,1.3798021 0 0 1 -1.38,-1.379802 1.38,1.3798021 0 0 1 1.38,-1.379802 1.38,1.3798021 0 0 1 1.38,1.379802 z" />
    <path
       style="font-size:18.383px;font-family:Inter, sans-serif;-inkscape-font-specification:'Inter, sans-serif';text-align:center;letter-spacing:0.0364192px;word-spacing:0px;text-anchor:middle;fill:#203361;stroke-width:0.0827235;stroke-linecap:square;stroke-linejoin:round"
       d="m 96.313492,95.494159 q 0,0.780918 -0.368019,1.543885 -0.359043,0.762966 -1.014297,1.292554 -0.718086,0.574469 -1.678526,0.897608 -0.951464,0.323138 -2.297875,0.323138 -1.445148,0 -2.603061,-0.269282 -1.148938,-0.269282 -2.342755,-0.79887 v -2.226067 h 0.125665 q 1.014296,0.843751 2.342755,1.301531 1.328459,0.45778 2.495349,0.45778 1.651597,0 2.567157,-0.619349 0.924535,-0.619349 0.924535,-1.651598 0,-0.888631 -0.439827,-1.310507 -0.430852,-0.421875 -1.319483,-0.655253 -0.673206,-0.179522 -1.4631,-0.296211 -0.780919,-0.116688 -1.660574,-0.29621 -1.777263,-0.376995 -2.638966,-1.283579 -0.852727,-0.915559 -0.852727,-2.378659 0,-1.678526 1.41822,-2.746679 1.41822,-1.077129 3.599406,-1.077129 1.409243,0 2.585109,0.269283 1.175866,0.269282 2.082449,0.664229 v 2.100401 h -0.125665 q -0.762966,-0.646277 -2.01064,-1.068152 -1.238699,-0.430852 -2.540229,-0.430852 -1.427196,0 -2.297875,0.592421 -0.861703,0.592421 -0.861703,1.525932 0,0.834775 0.430851,1.310507 0.430852,0.475732 1.516957,0.727062 0.574468,0.125665 1.633645,0.305187 1.059177,0.179521 1.795215,0.368019 1.490028,0.394947 2.244018,1.193818 0.753991,0.79887 0.753991,2.235042 z"
       id="text31"
       transform="scale(1.0170928,0.98319445)"
       aria-label="S" />
  </g>
</svg>
