<?xml version="1.0" encoding="UTF-8" standalone="no"?>
<svg
   viewBox="0 0 251.41046 73.644066"
   version="1.1"
   id="svg2"
   width="251.41046"
   height="73.644066"
   sodipodi:docname="Logo_blau.svg"
   inkscape:version="1.4.2 (ebf0e940, 2025-05-08)"
   xmlns:inkscape="http://www.inkscape.org/namespaces/inkscape"
   xmlns:sodipodi="http://sodipodi.sourceforge.net/DTD/sodipodi-0.dtd"
   xmlns="http://www.w3.org/2000/svg"
   xmlns:svg="http://www.w3.org/2000/svg">
  <sodipodi:namedview
     id="namedview1"
     pagecolor="#ffffff"
     bordercolor="#000000"
     borderopacity="0.25"
     inkscape:showpageshadow="2"
     inkscape:pageopacity="0.0"
     inkscape:pagecheckerboard="0"
     inkscape:deskcolor="#d1d1d1"
     inkscape:zoom="1.1878555"
     inkscape:cx="127.54077"
     inkscape:cy="118.70131"
     inkscape:window-width="1408"
     inkscape:window-height="641"
     inkscape:window-x="0"
     inkscape:window-y="25"
     inkscape:window-maximized="0"
     inkscape:current-layer="svg2" />
  <defs
     id="defs2" />
  <style
     id="style1"><![CDATA[
    .brand { font-family: 'Inter', sans-serif; font-weight: 800; font-size: 72px; fill: #172554; }
    .claim { font-family: 'Inter', sans-serif; font-weight: 500; font-size: 22px; fill: #1e4fd6; }
  ]]></style>
  <g
     id="g5"
     style="display:inline">
    <path
       d="M 30.656407,53.296875 H 1.5687943e-4 v -9.28125 H 8.5782819 V 10.230469 H 1.5687943e-4 V 0.94921875 H 30.656407 V 10.230469 h -8.578125 v 33.785156 h 8.578125 z m 65.882812,0 H 83.109532 V 18.246094 L 73.406407,40.992187 H 64.090001 L 54.386876,18.246094 V 53.296875 H 41.660313 V 0.94921875 H 57.340001 L 69.117344,27.210937 80.859532,0.94921875 h 15.679687 z m 60.292971,0 h -13.5 v -23.0625 h -19.9336 v 23.0625 h -13.5 V 0.94921875 h 13.5 V 20.109375 h 19.9336 V 0.94921875 h 13.5 z m 41.66015,0 h -30.65625 v -9.28125 h 8.57813 V 10.230469 h -8.57813 V 0.94921875 h 30.65625 V 10.230469 h -8.57812 v 33.785156 h 8.57812 z M 251.4025,36.84375 q 0,7.734375 -6.57422,12.585937 -6.53906,4.816407 -17.78906,4.816407 -6.50391,0 -11.35547,-1.125 -4.81641,-1.160157 -9.03516,-2.917969 V 37.652344 h 1.47657 q 4.18359,3.339843 9.35156,5.132812 5.20312,1.792969 9.98437,1.792969 1.23047,0 3.23438,-0.210938 2.00391,-0.210937 3.26953,-0.703125 1.54688,-0.632812 2.53125,-1.582031 1.01953,-0.949219 1.01953,-2.8125 0,-1.722656 -1.47656,-2.953125 -1.44141,-1.265625 -4.25391,-1.933594 -2.95312,-0.703125 -6.25781,-1.300781 -3.26953,-0.632812 -6.15234,-1.582031 -6.60938,-2.144531 -9.52735,-5.800781 -2.88281,-3.691407 -2.88281,-9.140625 0,-7.3125002 6.53906,-11.917969 Q 220.07828,0 230.37906,0 q 5.16797,0 10.19532,1.0195312 5.0625,0.9843751 8.7539,2.4960938 v 12.058594 h -1.4414 q -3.16407,-2.53125 -7.76954,-4.21875 -4.57031,-1.7226565 -9.35156,-1.7226565 -1.6875,0 -3.375,0.2460938 -1.65234,0.2109377 -3.19922,0.8437497 -1.37109,0.527344 -2.35547,1.617188 -0.98437,1.054687 -0.98437,2.425781 0,2.074219 1.58203,3.199219 1.58203,1.089843 5.97656,2.003906 2.88282,0.597656 5.51953,1.160156 2.67188,0.5625 5.73047,1.546875 6.01172,1.96875 8.85938,5.378906 2.88281,3.375 2.88281,8.789063 z"
       id="text1-8-9"
       style="font-weight:800;font-size:72px;font-family:Inter, sans-serif;fill:#172554"
       class="brand"
       aria-label="IMHIS" />
  </g>
  <path
     d="m 11.429126,62.813785 q 0,1.844287 -0.808579,3.343338 -0.7994933,1.499051 -2.1350112,2.3258 -0.9266859,0.572365 -2.0714156,0.826749 -1.1356445,0.254384 -2.9981015,0.254384 H 5.9604645e-8 V 56.036259 H 3.3796781 q 1.980564,0 3.143464,0.290725 1.1719851,0.28164 1.980564,0.781323 1.3809437,0.86309 2.1531819,2.298545 0.772238,1.435455 0.772238,3.406933 z M 9.548499,62.78653 q 0,-1.589902 -0.5541945,-2.680121 Q 8.44011,59.01619 7.3408061,58.389314 6.5413124,57.935057 5.641882,57.762439 4.7424515,57.580736 3.4887,57.580736 H 1.798861 V 68.01958 H 3.4887 q 1.2991773,0 2.2622038,-0.190788 Q 6.7230155,67.638003 7.5315944,67.120149 8.5400467,66.475103 9.0397303,65.421225 9.548499,64.367347 9.548499,62.78653 Z m 12.537515,6.777526 H 20.38709 v -1.081133 q -0.227129,0.154447 -0.61779,0.436087 -0.381577,0.272555 -0.744983,0.436088 -0.427003,0.208958 -0.981197,0.345236 -0.554195,0.145362 -1.299177,0.145362 -1.371859,0 -2.3258,-0.908515 -0.953942,-0.908516 -0.953942,-2.316715 0,-1.153815 0.490599,-1.862457 0.499683,-0.717727 1.417284,-1.126559 0.926686,-0.408833 2.225863,-0.554195 1.299178,-0.145363 2.789143,-0.218044 v -0.263469 q 0,-0.58145 -0.208958,-0.963027 -0.199874,-0.381576 -0.58145,-0.59962 -0.363407,-0.208959 -0.872175,-0.28164 -0.508769,-0.07268 -1.062964,-0.07268 -0.672301,0 -1.49905,0.181703 -0.82675,0.172618 -1.70801,0.508769 h -0.09085 v -1.735265 q 0.499683,-0.136277 1.44454,-0.29981 0.944856,-0.163533 1.862457,-0.163533 1.072048,0 1.862456,0.181703 0.799494,0.172618 1.380944,0.59962 0.572365,0.417918 0.872175,1.081134 0.29981,0.663216 0.29981,1.644413 z M 20.38709,67.065638 v -2.825483 q -0.781323,0.04543 -1.844287,0.136277 -1.053878,0.09085 -1.671668,0.26347 -0.735898,0.208958 -1.190156,0.654131 -0.454257,0.436088 -0.454257,1.208326 0,0.872175 0.526939,1.317347 0.526939,0.436088 1.608072,0.436088 0.899431,0 1.644413,-0.345236 0.744983,-0.354321 1.380944,-0.84492 z m 19.796555,2.498418 h -1.708009 v -5.778159 q 0,-0.654131 -0.0636,-1.262837 -0.05451,-0.608705 -0.2453,-0.972111 -0.208958,-0.390662 -0.59962,-0.590535 -0.390662,-0.199874 -1.126559,-0.199874 -0.717728,0 -1.435455,0.363406 -0.717727,0.354322 -1.435455,0.908516 0.02726,0.208959 0.04543,0.490598 0.01817,0.272555 0.01817,0.54511 v 6.495886 h -1.708009 v -5.778159 q 0,-0.672301 -0.0636,-1.271922 -0.05451,-0.608705 -0.245299,-0.972111 -0.208959,-0.390662 -0.59962,-0.58145 -0.390662,-0.199874 -1.12656,-0.199874 -0.699557,0 -1.408199,0.345236 -0.699557,0.345236 -1.399114,0.88126 v 7.57702 H 25.374841 V 59.415937 h 1.708009 v 1.126559 q 0.799494,-0.663216 1.589902,-1.035707 0.799494,-0.372492 1.698924,-0.372492 1.035708,0 1.753436,0.436088 0.726812,0.436087 1.081133,1.208326 1.035708,-0.872175 1.889713,-1.253752 0.854004,-0.390662 1.826116,-0.390662 1.671669,0 2.462077,1.017538 0.799494,1.008452 0.799494,2.825483 z m 5.124029,-11.847043 h -1.926053 v -1.771605 h 1.926053 z m -0.109022,11.847043 h -1.70801 V 59.415937 h 1.70801 z m 8.649068,-0.09085 q -0.481513,0.127192 -1.053878,0.208958 -0.563279,0.08177 -1.008452,0.08177 -1.553562,0 -2.362141,-0.835835 -0.808578,-0.835834 -0.808578,-2.680121 v -5.396582 h -1.153815 v -1.435455 h 1.153815 v -2.916335 h 1.708009 v 2.916335 h 3.52504 v 1.435455 h -3.52504 v 4.624344 q 0,0.799494 0.03634,1.253752 0.03634,0.445172 0.254384,0.835834 0.199873,0.363406 0.545109,0.536024 0.354321,0.163533 1.072049,0.163533 0.417917,0 0.872175,-0.118107 0.454257,-0.127192 0.654131,-0.208959 h 0.09085 z m 20.169045,-6.65942 q 0,1.844287 -0.808579,3.343338 -0.799493,1.499051 -2.135011,2.3258 -0.926686,0.572365 -2.071416,0.826749 -1.135644,0.254384 -2.998101,0.254384 H 62.587639 V 56.036259 h 3.379678 q 1.980564,0 3.143464,0.290725 1.171985,0.28164 1.980564,0.781323 1.380944,0.86309 2.153182,2.298545 0.772238,1.435455 0.772238,3.406933 z m -1.880627,-0.02726 q 0,-1.589902 -0.554195,-2.680121 Q 71.027749,59.01619 69.928445,58.389314 69.128951,57.935057 68.229521,57.762439 67.33009,57.580736 66.076339,57.580736 H 64.3865 V 68.01958 h 1.689839 q 1.299177,0 2.262204,-0.190788 0.972111,-0.190789 1.78069,-0.708643 1.008453,-0.645046 1.508136,-1.698924 0.508769,-1.053878 0.508769,-2.634695 z m 6.486805,-5.069517 H 76.69689 v -1.771605 h 1.926053 z M 78.513921,69.564056 H 76.805912 V 59.415937 h 1.708009 z m 11.61083,-1.153814 q 0,2.580184 -1.171985,3.78851 -1.171985,1.208325 -3.606807,1.208325 -0.808579,0 -1.580817,-0.118107 -0.763154,-0.109022 -1.508136,-0.31798 v -1.74435 h 0.09085 q 0.417917,0.163533 1.326433,0.399747 0.908516,0.245299 1.817031,0.245299 0.872175,0 1.44454,-0.208959 0.572365,-0.208958 0.890345,-0.58145 0.317981,-0.354321 0.454258,-0.854004 0.136277,-0.499684 0.136277,-1.117474 v -0.926686 q -0.772238,0.61779 -1.48088,0.926686 -0.699557,0.29981 -1.789776,0.29981 -1.817031,0 -2.889079,-1.308263 -1.062964,-1.317347 -1.062964,-3.706743 0,-1.308263 0.363407,-2.253119 0.372491,-0.953941 1.008452,-1.644413 0.590535,-0.645046 1.435455,-0.999367 0.844919,-0.363407 1.680753,-0.363407 0.881261,0 1.471796,0.181703 0.59962,0.172618 1.262836,0.536025 l 0.109022,-0.436088 h 1.598988 z m -1.70801,-1.635329 v -5.53286 q -0.681386,-0.308895 -1.271921,-0.436087 -0.58145,-0.136277 -1.1629,-0.136277 -1.4082,0 -2.216778,0.944856 -0.808579,0.944856 -0.808579,2.743717 0,1.708009 0.59962,2.589269 0.59962,0.881261 1.989649,0.881261 0.744983,0 1.489966,-0.28164 0.754068,-0.290725 1.380943,-0.772239 z m 6.904719,-9.0579 H 93.395407 V 55.945408 H 95.32146 Z M 95.212438,69.564056 H 93.504429 V 59.415937 h 1.708009 z m 8.649072,-0.09085 q -0.48152,0.127192 -1.05388,0.208958 -0.56328,0.08177 -1.00845,0.08177 -1.55357,0 -2.362144,-0.835835 -0.808579,-0.835834 -0.808579,-2.680121 v -5.396582 h -1.153815 v -1.435455 h 1.153815 v -2.916335 h 1.708013 v 2.916335 h 3.52504 v 1.435455 h -3.52504 v 4.624344 q 0,0.799494 0.0363,1.253752 0.0363,0.445172 0.25438,0.835834 0.19987,0.363406 0.54511,0.536024 0.35432,0.163533 1.07205,0.163533 0.41792,0 0.87217,-0.118107 0.45426,-0.127192 0.65414,-0.208959 h 0.0908 z m 9.94824,0.09085 h -1.69892 v -1.081133 q -0.22713,0.154447 -0.61779,0.436087 -0.38158,0.272555 -0.74499,0.436088 -0.427,0.208958 -0.98119,0.345236 -0.5542,0.145362 -1.29918,0.145362 -1.37186,0 -2.3258,-0.908515 -0.95394,-0.908516 -0.95394,-2.316715 0,-1.153815 0.4906,-1.862457 0.49968,-0.717727 1.41728,-1.126559 0.92669,-0.408833 2.22586,-0.554195 1.29918,-0.145363 2.78915,-0.218044 v -0.263469 q 0,-0.58145 -0.20896,-0.963027 -0.19988,-0.381576 -0.58145,-0.59962 -0.36341,-0.208959 -0.87218,-0.28164 -0.50877,-0.07268 -1.06296,-0.07268 -0.6723,0 -1.49905,0.181703 -0.82675,0.172618 -1.70801,0.508769 h -0.0908 v -1.735265 q 0.49968,-0.136277 1.44454,-0.29981 0.94485,-0.163533 1.86245,-0.163533 1.07205,0 1.86246,0.181703 0.7995,0.172618 1.38095,0.59962 0.57236,0.417918 0.87217,1.081134 0.29981,0.663216 0.29981,1.644413 z m -1.69892,-2.498418 v -2.825483 q -0.78133,0.04543 -1.84429,0.136277 -1.05388,0.09085 -1.67167,0.26347 -0.7359,0.208958 -1.19015,0.654131 -0.45426,0.436088 -0.45426,1.208326 0,0.872175 0.52694,1.317347 0.52694,0.436088 1.60807,0.436088 0.89943,0 1.64441,-0.345236 0.74499,-0.354321 1.38095,-0.84492 z m 6.71393,2.498418 h -1.70801 V 55.427554 h 1.70801 z m 5.21488,-11.847043 h -1.92606 v -1.771605 h 1.92606 z m -0.10902,11.847043 h -1.70801 V 59.415937 h 1.70801 z m 10.62963,-2.92542 q 0,1.390029 -1.15382,2.280374 -1.14473,0.890346 -3.13438,0.890346 -1.12655,0 -2.07141,-0.26347 -0.93577,-0.272555 -1.57173,-0.590535 v -1.916968 h 0.0908 q 0.80858,0.608705 1.79886,0.972112 0.99028,0.354321 1.8988,0.354321 1.12656,0 1.76252,-0.363406 0.63596,-0.363407 0.63596,-1.14473 0,-0.59962 -0.34524,-0.908516 -0.34523,-0.308895 -1.32643,-0.526939 -0.36341,-0.08177 -0.95394,-0.190788 -0.58145,-0.109022 -1.06296,-0.236214 -1.33552,-0.354321 -1.8988,-1.035708 -0.5542,-0.690472 -0.5542,-1.689839 0,-0.626876 0.25439,-1.18107 0.26347,-0.554195 0.79041,-0.990282 0.50876,-0.427003 1.29009,-0.672302 0.79041,-0.254384 1.76252,-0.254384 0.90851,0 1.8352,0.227129 0.93577,0.218044 1.55356,0.536024 v 1.826116 h -0.0909 q -0.65413,-0.481513 -1.5899,-0.808579 -0.93577,-0.33615 -1.8352,-0.33615 -0.93577,0 -1.58082,0.363406 -0.64505,0.354321 -0.64505,1.062963 0,0.626876 0.39066,0.944856 0.38158,0.317981 1.23559,0.517854 0.47242,0.109022 1.05387,0.218044 0.59054,0.109022 0.9812,0.199874 1.19016,0.272554 1.8352,0.935771 0.64505,0.672301 0.64505,1.78069 z m 4.2791,-8.921623 h -1.92605 v -1.771605 h 1.92605 z m -0.10902,11.847043 h -1.70801 V 59.415937 h 1.70801 z m 11.87431,-4.896899 h -7.47709 q 0,0.935771 0.28164,1.635328 0.28164,0.690472 0.77224,1.135645 0.47243,0.436087 1.11747,0.654131 0.65414,0.218044 1.43546,0.218044 1.03571,0 2.0805,-0.408832 1.05388,-0.417917 1.49905,-0.817664 h 0.0909 v 1.862457 q -0.86309,0.363406 -1.76252,0.608705 -0.89943,0.245299 -1.88971,0.245299 -2.52567,0 -3.94296,-1.362773 -1.41728,-1.371859 -1.41728,-3.888447 0,-2.489332 1.35369,-3.952043 1.36277,-1.46271 3.57955,-1.46271 2.05324,0 3.16163,1.199241 1.11748,1.19924 1.11748,3.406933 z m -1.66259,-1.308262 q -0.009,-1.344603 -0.68138,-2.080501 -0.66322,-0.735898 -2.02599,-0.735898 -1.37186,0 -2.18953,0.808579 -0.80858,0.808579 -0.9176,2.00782 z m 10.58421,-2.080501 h -0.0909 q -0.38158,-0.09085 -0.74498,-0.127192 -0.35432,-0.04543 -0.84492,-0.04543 -0.79041,0 -1.52631,0.354321 -0.7359,0.345236 -1.41728,0.899431 v 7.204528 h -1.70801 V 59.415937 h 1.70801 v 1.499051 q 1.01753,-0.817664 1.78977,-1.153815 0.78133,-0.345236 1.58991,-0.345236 0.44517,0 0.64504,0.02726 0.19987,0.01817 0.59962,0.08177 z m 10.02092,8.285662 h -1.70801 v -1.126559 q -0.86309,0.681387 -1.6535,1.044793 -0.79041,0.363406 -1.74435,0.363406 -1.59899,0 -2.48933,-0.972111 -0.89035,-0.981197 -0.89035,-2.87091 v -6.586738 h 1.70801 v 5.778159 q 0,0.772239 0.0727,1.326433 0.0727,0.545109 0.3089,0.935771 0.2453,0.399747 0.63596,0.58145 0.39066,0.181703 1.13564,0.181703 0.66322,0 1.44454,-0.345236 0.79041,-0.345236 1.4718,-0.88126 v -7.57702 h 1.70801 z m 11.84705,0 h -1.70801 v -5.778159 q 0,-0.699557 -0.0818,-1.308262 -0.0818,-0.617791 -0.29981,-0.963027 -0.22713,-0.381576 -0.65413,-0.56328 -0.427,-0.190788 -1.10839,-0.190788 -0.69956,0 -1.46271,0.345236 -0.76315,0.345236 -1.46271,0.88126 v 7.57702 h -1.70801 V 59.415937 h 1.70801 v 1.126559 q 0.79949,-0.663216 1.6535,-1.035707 0.854,-0.372492 1.75343,-0.372492 1.64442,0 2.50751,0.990282 0.86309,0.990282 0.86309,2.852739 z m 11.51998,-1.153814 q 0,2.580184 -1.17199,3.78851 -1.17198,1.208325 -3.6068,1.208325 -0.80858,0 -1.58082,-0.118107 -0.76315,-0.109022 -1.50814,-0.31798 v -1.74435 h 0.0909 q 0.41791,0.163533 1.32643,0.399747 0.90851,0.245299 1.81703,0.245299 0.87218,0 1.44454,-0.208959 0.57237,-0.208958 0.89035,-0.58145 0.31798,-0.354321 0.45425,-0.854004 0.13628,-0.499684 0.13628,-1.117474 v -0.926686 q -0.77224,0.61779 -1.48088,0.926686 -0.69956,0.29981 -1.78978,0.29981 -1.81703,0 -2.88908,-1.308263 -1.06296,-1.317347 -1.06296,-3.706743 0,-1.308263 0.36341,-2.253119 0.37249,-0.953941 1.00845,-1.644413 0.59054,-0.645046 1.43545,-0.999367 0.84492,-0.363407 1.68076,-0.363407 0.88126,0 1.47179,0.181703 0.59962,0.172618 1.26284,0.536025 l 0.10902,-0.436088 h 1.59899 z m -1.70801,-1.635329 v -5.53286 q -0.68139,-0.308895 -1.27192,-0.436087 -0.58145,-0.136277 -1.1629,-0.136277 -1.4082,0 -2.21678,0.944856 -0.80858,0.944856 -0.80858,2.743717 0,1.708009 0.59962,2.589269 0.59962,0.881261 1.98965,0.881261 0.74498,0 1.48997,-0.28164 0.75406,-0.290725 1.38094,-0.772239 z m 24.37548,-7.358976 -2.64379,10.148119 h -1.58081 l -2.60744,-7.822319 -2.58927,7.822319 h -1.57173 L 201.9176,59.415937 h 1.78069 l 1.86246,7.85866 2.53476,-7.85866 h 1.4082 l 2.59835,7.85866 1.76252,-7.85866 z m 4.29727,-1.698924 h -1.92606 v -1.771605 h 1.92606 z m -0.10902,11.847043 h -1.70801 V 59.415937 h 1.70801 z m 9.71202,-8.285662 h -0.0909 q -0.38158,-0.09085 -0.74498,-0.127192 -0.35433,-0.04543 -0.84492,-0.04543 -0.79041,0 -1.52631,0.354321 -0.7359,0.345236 -1.41728,0.899431 v 7.204528 H 223.1496 V 59.415937 h 1.70801 v 1.499051 q 1.01753,-0.817664 1.78977,-1.153815 0.78132,-0.345236 1.5899,-0.345236 0.44518,0 0.64505,0.02726 0.19987,0.01817 0.59962,0.08177 z m 10.82042,8.285662 h -2.25311 l -4.07015,-4.442641 -1.10839,1.053878 v 3.388763 h -1.70801 V 55.427554 h 1.70801 v 9.066985 l 4.93324,-5.078602 h 2.15318 l -4.7152,4.687941 z m 7.06826,-0.09085 q -0.48151,0.127192 -1.05388,0.208958 -0.56328,0.08177 -1.00845,0.08177 -1.55356,0 -2.36214,-0.835835 -0.80858,-0.835834 -0.80858,-2.680121 v -5.396582 h -1.15381 v -1.435455 h 1.15381 v -2.916335 h 1.70801 v 2.916335 h 3.52504 v 1.435455 h -3.52504 v 4.624344 q 0,0.799494 0.0363,1.253752 0.0363,0.445172 0.25439,0.835834 0.19987,0.363406 0.54511,0.536024 0.35432,0.163533 1.07204,0.163533 0.41792,0 0.87218,-0.118107 0.45426,-0.127192 0.65413,-0.208959 h 0.0909 z m 4.85148,0.09085 h -2.17135 v -2.589269 h 2.17135 z"
     id="text2-6-4"
     style="font-weight:500;font-size:18.6064px;font-family:Inter, sans-serif;-inkscape-font-specification:'Inter, sans-serif, Medium';fill:#1d2c67;stroke-width:0.996782"
     class="claim"
     transform="scale(0.99678198,1.0032284)"
     aria-label="Damit Digitalisierung wirkt." />
</svg>
