<?xml version="1.0" encoding="UTF-8" standalone="no"?>
<svg
   viewBox="0 0 251.40234 54.246094"
   version="1.1"
   id="svg2"
   width="251.40234"
   height="54.246094"
   xmlns="http://www.w3.org/2000/svg"
   xmlns:svg="http://www.w3.org/2000/svg">
  <defs
     id="defs2" />
  <style
     id="style1"><![CDATA[
    .brand { font-family: 'Inter', sans-serif; font-weight: 800; font-size: 72px; fill: #172554; }
    .claim { font-family: 'Inter', sans-serif; font-weight: 500; font-size: 22px; fill: #1e4fd6; }
  ]]></style>
  <g
     id="g5"
     style="display:inline"
     transform="translate(-1.5687943e-4)">
    <path
       d="M 30.656407,53.296875 H 1.5687943e-4 v -9.28125 H 8.5782819 V 10.230469 H 1.5687943e-4 V 0.94921875 H 30.656407 V 10.230469 h -8.578125 v 33.785156 h 8.578125 z m 65.882812,0 H 83.109532 V 18.246094 L 73.406407,40.992187 H 64.090001 L 54.386876,18.246094 V 53.296875 H 41.660313 V 0.94921875 H 57.340001 L 69.117344,27.210937 80.859532,0.94921875 h 15.679687 z m 60.292971,0 h -13.5 v -23.0625 h -19.9336 v 23.0625 h -13.5 V 0.94921875 h 13.5 V 20.109375 h 19.9336 V 0.94921875 h 13.5 z m 41.66015,0 h -30.65625 v -9.28125 h 8.57813 V 10.230469 h -8.57813 V 0.94921875 h 30.65625 V 10.230469 h -8.57812 v 33.785156 h 8.57812 z M 251.4025,36.84375 q 0,7.734375 -6.57422,12.585937 -6.53906,4.816407 -17.78906,4.816407 -6.50391,0 -11.35547,-1.125 -4.81641,-1.160157 -9.03516,-2.917969 V 37.652344 h 1.47657 q 4.18359,3.339843 9.35156,5.132812 5.20312,1.792969 9.98437,1.792969 1.23047,0 3.23438,-0.210938 2.00391,-0.210937 3.26953,-0.703125 1.54688,-0.632812 2.53125,-1.582031 1.01953,-0.949219 1.01953,-2.8125 0,-1.722656 -1.47656,-2.953125 -1.44141,-1.265625 -4.25391,-1.933594 -2.95312,-0.703125 -6.25781,-1.300781 -3.26953,-0.632812 -6.15234,-1.582031 -6.60938,-2.144531 -9.52735,-5.800781 -2.88281,-3.691407 -2.88281,-9.140625 0,-7.3125002 6.53906,-11.917969 Q 220.07828,0 230.37906,0 q 5.16797,0 10.19532,1.0195312 5.0625,0.9843751 8.7539,2.4960938 v 12.058594 h -1.4414 q -3.16407,-2.53125 -7.76954,-4.21875 -4.57031,-1.7226565 -9.35156,-1.7226565 -1.6875,0 -3.375,0.2460938 -1.65234,0.2109377 -3.19922,0.8437497 -1.37109,0.527344 -2.35547,1.617188 -0.98437,1.054687 -0.98437,2.425781 0,2.074219 1.58203,3.199219 1.58203,1.089843 5.97656,2.003906 2.88282,0.597656 5.51953,1.160156 2.67188,0.5625 5.73047,1.546875 6.01172,1.96875 8.85938,5.378906 2.88281,3.375 2.88281,8.789063 z"
       id="text1-8-9"
       style="font-weight:800;font-size:72px;font-family:Inter, sans-serif;fill:#172554"
       class="brand"
       aria-label="IMHIS" />
  </g>
</svg>
