<?xml version="1.0" encoding="UTF-8" standalone="no"?>
<!-- Created with Inkscape (http://www.inkscape.org/) -->

<svg
   width="47.738049mm"
   height="18.198097mm"
   viewBox="0 0 47.738049 18.198097"
   version="1.1"
   id="svg1"
   xmlns="http://www.w3.org/2000/svg"
   xmlns:svg="http://www.w3.org/2000/svg">
  <defs
     id="defs1" />
  <g
     id="layer1"
     transform="translate(-50.22171,-84.258838)">
    <path
       style="font-size:19.008px;font-family:Inter, Manrope, system-ui, '-apple-system', 'Segoe UI', Roboto, 'Helvetica Neue', Arial, sans-serif;-inkscape-font-specification:'Inter, Manrope, system-ui, -apple-system, Segoe UI, Roboto, Helvetica Neue, Arial, sans-serif, Normal';letter-spacing:0px;fill:#203361;stroke-width:0.264"
       d="m 68.738148,84.44489 v 13.571712 h 1.80576 v -6.215616 h 7.147007 v 6.215616 h 1.80576 V 84.44489 h -1.80576 v 5.835456 H 70.543908 V 84.44489 Z m 13.799809,0 v 13.571712 h 1.80576 V 84.44489 Z"
       id="text1-8-9-1-2-0-7"
       class="brand"
       transform="scale(1.0022081,0.99779677)"
       aria-label="HI" />
    <path
       style="font-size:4.11088px;font-family:Inter, Manrope, system-ui, '-apple-system', 'Segoe UI', Roboto, 'Helvetica Neue', Arial, sans-serif;-inkscape-font-specification:'Inter, Manrope, system-ui, -apple-system, Segoe UI, Roboto, Helvetica Neue, Arial, sans-serif';letter-spacing:0.037185px;fill:#203361;stroke-width:0.256103"
       d="m 52.275624,97.984805 v -2.277428 h 0.657741 q 0.271318,0 0.456307,0.07811 0.18499,0.074 0.300095,0.221987 0.119215,0.143881 0.168546,0.353536 0.05344,0.205544 0.05344,0.46864 0,0.271318 -0.05755,0.46453 -0.05344,0.1891 -0.13977,0.316537 -0.08633,0.127438 -0.197322,0.201434 -0.106883,0.074 -0.217877,0.115104 -0.110994,0.037 -0.209655,0.04933 -0.09866,0.0082 -0.164435,0.0082 z M 51.88509,95.378507 v 2.935168 h 1.007166 q 0.365868,0 0.633075,-0.102772 0.267208,-0.102772 0.439865,-0.295983 0.172656,-0.197323 0.254874,-0.480973 0.08222,-0.287762 0.08222,-0.657741 0,-0.707071 -0.365869,-1.052385 -0.365868,-0.345314 -1.044163,-0.345314 z m 4.756477,2.926946 q -0.09044,0.05344 -0.250763,0.05344 -0.135659,0 -0.217877,-0.074 -0.07811,-0.07811 -0.07811,-0.250764 -0.143881,0.172657 -0.337092,0.250764 -0.1891,0.074 -0.411088,0.074 -0.143881,0 -0.275429,-0.03289 -0.127437,-0.03289 -0.221987,-0.102772 -0.09455,-0.06988 -0.152103,-0.180879 -0.05344,-0.115105 -0.05344,-0.275429 0,-0.180879 0.06166,-0.295983 0.06166,-0.115105 0.160324,-0.18499 0.102772,-0.074 0.230209,-0.110994 0.131549,-0.037 0.267208,-0.06166 0.14388,-0.02878 0.271318,-0.04111 0.131548,-0.01644 0.230209,-0.04111 0.09866,-0.02878 0.156213,-0.07811 0.05755,-0.05344 0.05755,-0.152103 0,-0.115105 -0.04522,-0.184989 -0.04111,-0.06988 -0.110994,-0.106883 -0.06577,-0.037 -0.152102,-0.04933 -0.08222,-0.01233 -0.164435,-0.01233 -0.221988,0 -0.36998,0.08633 -0.147991,0.08222 -0.160324,0.316538 h -0.349425 q 0.0082,-0.197323 0.08222,-0.332982 0.074,-0.135659 0.197322,-0.217876 0.123326,-0.08633 0.27954,-0.123327 0.160324,-0.037 0.341203,-0.037 0.143881,0 0.283651,0.02056 0.14388,0.02055 0.258985,0.08633 0.115105,0.06166 0.18499,0.176768 0.06988,0.115105 0.06988,0.300094 v 1.093494 q 0,0.123327 0.01233,0.180879 0.01644,0.05755 0.09866,0.05755 0.04522,0 0.106883,-0.02055 z M 56.074266,97.21607 q -0.06577,0.04933 -0.172657,0.074 -0.106883,0.02055 -0.226099,0.037 -0.115104,0.01233 -0.23432,0.03289 -0.119215,0.01644 -0.213765,0.05755 -0.09455,0.04111 -0.156214,0.119216 -0.05755,0.07399 -0.05755,0.205544 0,0.08633 0.03289,0.147991 0.037,0.05755 0.09044,0.09455 0.05755,0.037 0.131548,0.05344 0.074,0.01644 0.156214,0.01644 0.172657,0 0.295983,-0.04522 0.123327,-0.04933 0.201433,-0.119216 0.07811,-0.074 0.115105,-0.156213 0.037,-0.08633 0.037,-0.160324 z m 0.929249,-1.02772 v 2.125325 h 0.349425 v -1.323703 q 0,-0.06166 0.02878,-0.152103 0.03289,-0.09455 0.09866,-0.180879 0.06988,-0.08633 0.176768,-0.147991 0.110993,-0.06166 0.263096,-0.06166 0.119215,0 0.193211,0.037 0.07811,0.03289 0.123327,0.09866 0.04522,0.06166 0.06166,0.147992 0.02055,0.08633 0.02055,0.189101 v 1.393588 h 0.349425 v -1.323703 q 0,-0.246653 0.147992,-0.394645 0.147991,-0.147992 0.406977,-0.147992 0.127437,0 0.205544,0.037 0.08222,0.037 0.127437,0.102772 0.04522,0.06166 0.06166,0.147992 0.01644,0.08633 0.01644,0.18499 v 1.393588 h 0.349425 v -1.558024 q 0,-0.164435 -0.05344,-0.279539 -0.04933,-0.119216 -0.143881,-0.193212 -0.09044,-0.074 -0.221987,-0.106883 -0.127437,-0.037 -0.287762,-0.037 -0.209655,0 -0.386422,0.09455 -0.172657,0.09455 -0.27954,0.267207 -0.06577,-0.197322 -0.226099,-0.27954 -0.160324,-0.08222 -0.357646,-0.08222 -0.448086,0 -0.686517,0.361758 h -0.0082 V 96.18835 Z m 3.913747,-0.382312 v -0.427531 h -0.349425 v 0.427531 z m -0.349425,0.382312 v 2.125325 h 0.349425 V 96.18835 Z m 1.414331,0 v -0.637186 h -0.349425 v 0.637186 h -0.361757 v 0.308316 h 0.361757 v 1.352479 q 0,0.147992 0.02878,0.238432 0.02878,0.09044 0.08633,0.139769 0.06166,0.04933 0.156213,0.06988 0.09866,0.01644 0.23432,0.01644 h 0.267208 V 98.00535 h -0.160325 q -0.08222,0 -0.135659,-0.0041 -0.04933,-0.0082 -0.07811,-0.02878 -0.02878,-0.02056 -0.04111,-0.05755 -0.0082,-0.037 -0.0082,-0.09866 v -1.319592 h 0.423421 V 96.18835 Z m 2.475125,1.796455 v -2.277428 h 0.657741 q 0.271318,0 0.456308,0.07811 0.184989,0.074 0.300094,0.221987 0.119215,0.143881 0.168546,0.353536 0.05344,0.205544 0.05344,0.46864 0,0.271318 -0.05755,0.46453 -0.05344,0.1891 -0.13977,0.316537 -0.08633,0.127438 -0.197322,0.201434 -0.106883,0.074 -0.217877,0.115104 -0.110994,0.037 -0.209655,0.04933 -0.09866,0.0082 -0.164435,0.0082 z M 64.06676,95.378507 v 2.935168 h 1.007165 q 0.365868,0 0.633076,-0.102772 0.267207,-0.102772 0.439864,-0.295983 0.172657,-0.197323 0.254874,-0.480973 0.08222,-0.287762 0.08222,-0.657741 0,-0.707071 -0.365868,-1.052385 -0.365869,-0.345314 -1.044164,-0.345314 z m 3.243672,0.427531 v -0.427531 h -0.349425 v 0.427531 z m -0.349425,0.382312 v 2.125325 h 0.349425 V 96.18835 Z m 2.762699,1.944446 V 96.18835 h -0.32887 v 0.304205 h -0.0041 q -0.09455,-0.176768 -0.263097,-0.263096 -0.168546,-0.09044 -0.369979,-0.09044 -0.275429,0 -0.464529,0.106883 -0.189101,0.102772 -0.304205,0.267208 -0.115105,0.160324 -0.164436,0.361757 -0.04933,0.197322 -0.04933,0.386423 0,0.217876 0.05755,0.415199 0.06166,0.193211 0.180879,0.341203 0.119215,0.14388 0.295983,0.230209 0.176768,0.08633 0.415199,0.08633 0.205544,0 0.386423,-0.09044 0.184989,-0.09455 0.275429,-0.291873 h 0.0082 v 0.13977 q 0,0.176768 -0.037,0.32476 -0.03289,0.147992 -0.110994,0.250764 -0.07811,0.106882 -0.197322,0.164435 -0.119216,0.06166 -0.291873,0.06166 -0.08633,0 -0.180879,-0.02055 -0.09455,-0.01644 -0.176767,-0.05755 -0.07811,-0.04111 -0.135659,-0.106883 -0.05344,-0.06577 -0.05755,-0.160324 h -0.349425 q 0.0082,0.172657 0.09044,0.291873 0.08222,0.119215 0.205544,0.193211 0.127437,0.074 0.27954,0.106883 0.156213,0.03289 0.304205,0.03289 0.509749,0 0.74818,-0.258986 0.238431,-0.258985 0.238431,-0.781067 z m -0.978389,-0.102772 q -0.172657,0 -0.287762,-0.06988 -0.115105,-0.074 -0.18499,-0.1891 -0.06988,-0.119216 -0.09866,-0.263097 -0.02878,-0.14388 -0.02878,-0.287761 0,-0.152103 0.03289,-0.291873 0.037,-0.13977 0.110994,-0.246652 0.07811,-0.106883 0.197322,-0.168546 0.119216,-0.06578 0.287762,-0.06578 0.164435,0 0.27954,0.06578 0.115104,0.06577 0.184989,0.176767 0.074,0.106883 0.106883,0.242542 0.03289,0.135659 0.03289,0.275429 0,0.147992 -0.037,0.295984 -0.03289,0.147991 -0.106883,0.267207 -0.074,0.115104 -0.197322,0.1891 -0.119216,0.06988 -0.291873,0.06988 z m 1.911743,-2.223986 v -0.427531 h -0.349424 v 0.427531 z m -0.349424,0.382312 v 2.125325 H 70.65706 V 96.18835 Z m 1.41433,0 v -0.637186 h -0.349425 v 0.637186 h -0.361758 v 0.308316 h 0.361758 v 1.352479 q 0,0.147992 0.02878,0.238432 0.02878,0.09044 0.08633,0.139769 0.06166,0.04933 0.156214,0.06988 0.09866,0.01644 0.23432,0.01644 h 0.267207 V 98.00535 h -0.160324 q -0.08222,0 -0.135659,-0.0041 -0.04933,-0.0082 -0.07811,-0.02878 -0.02878,-0.02056 -0.04111,-0.05755 -0.0082,-0.037 -0.0082,-0.09866 v -1.319592 h 0.42342 V 96.18835 Z m 2.729814,2.117103 q -0.09044,0.05344 -0.250764,0.05344 -0.135659,0 -0.217876,-0.074 -0.07811,-0.07811 -0.07811,-0.250764 -0.143881,0.172657 -0.337092,0.250764 -0.189101,0.074 -0.411088,0.074 -0.143881,0 -0.275429,-0.03289 -0.127438,-0.03289 -0.221988,-0.102772 -0.09455,-0.06988 -0.152102,-0.180879 -0.05344,-0.115105 -0.05344,-0.275429 0,-0.180879 0.06166,-0.295983 0.06166,-0.115105 0.160325,-0.18499 0.102772,-0.074 0.230209,-0.110994 0.131548,-0.037 0.267207,-0.06166 0.143881,-0.02878 0.271318,-0.04111 0.131548,-0.01644 0.23021,-0.04111 0.09866,-0.02878 0.156213,-0.07811 0.05755,-0.05344 0.05755,-0.152103 0,-0.115105 -0.04522,-0.184989 -0.04111,-0.06988 -0.110994,-0.106883 -0.06577,-0.037 -0.152103,-0.04933 -0.08222,-0.01233 -0.164435,-0.01233 -0.221987,0 -0.369979,0.08633 -0.147992,0.08222 -0.160324,0.316538 H 72.53611 q 0.0082,-0.197323 0.08222,-0.332982 0.074,-0.135659 0.197323,-0.217876 0.123326,-0.08633 0.27954,-0.123327 0.160324,-0.037 0.341203,-0.037 0.14388,0 0.28365,0.02056 0.143881,0.02055 0.258986,0.08633 0.115104,0.06166 0.184989,0.176768 0.06988,0.115105 0.06988,0.300094 v 1.093494 q 0,0.123327 0.01233,0.180879 0.01644,0.05755 0.09866,0.05755 0.04522,0 0.106883,-0.02055 z M 73.884478,97.21607 q -0.06577,0.04933 -0.172657,0.074 -0.106882,0.02055 -0.226098,0.037 -0.115105,0.01233 -0.23432,0.03289 -0.119216,0.01644 -0.213766,0.05755 -0.09455,0.04111 -0.156213,0.119216 -0.05755,0.07399 -0.05755,0.205544 0,0.08633 0.03289,0.147991 0.037,0.05755 0.09044,0.09455 0.05755,0.037 0.131548,0.05344 0.074,0.01644 0.156213,0.01644 0.172657,0 0.295984,-0.04522 0.123326,-0.04933 0.201433,-0.119216 0.07811,-0.074 0.115105,-0.156213 0.037,-0.08633 0.037,-0.160324 z m 0.949803,-1.837563 v 2.935168 h 0.349425 v -2.935168 z m 1.299226,0.427531 v -0.427531 h -0.349425 v 0.427531 z m -0.349425,0.382312 v 2.125325 h 0.349425 V 96.18835 Z m 1.143014,1.455252 h -0.349425 q 0.0082,0.197322 0.08222,0.337092 0.074,0.135659 0.197323,0.221987 0.123326,0.08222 0.28365,0.119216 0.160325,0.037 0.337092,0.037 0.160325,0 0.320649,-0.03289 0.164435,-0.02878 0.291873,-0.106883 0.131548,-0.07811 0.209654,-0.205544 0.08222,-0.127438 0.08222,-0.320649 0,-0.152102 -0.06166,-0.254874 -0.05755,-0.102772 -0.156214,-0.168547 -0.09455,-0.06988 -0.221987,-0.110993 -0.123327,-0.04111 -0.254875,-0.06988 -0.123326,-0.02878 -0.246652,-0.05344 -0.123327,-0.02878 -0.221988,-0.06577 -0.09866,-0.04111 -0.164435,-0.09866 -0.06166,-0.06166 -0.06166,-0.152102 0,-0.08222 0.04111,-0.131549 0.04111,-0.05344 0.106883,-0.08222 0.06577,-0.03289 0.143881,-0.04522 0.08222,-0.01233 0.160324,-0.01233 0.08633,0 0.168546,0.02056 0.08633,0.01644 0.156214,0.05755 0.06988,0.04111 0.115105,0.110994 0.04522,0.06577 0.05344,0.168546 h 0.349425 q -0.01233,-0.193211 -0.08222,-0.320649 -0.06988,-0.131548 -0.1891,-0.205544 -0.115105,-0.07811 -0.267207,-0.106883 -0.152103,-0.03289 -0.332982,-0.03289 -0.13977,0 -0.28365,0.037 -0.13977,0.03289 -0.254875,0.106883 -0.110994,0.06988 -0.18499,0.18499 -0.06988,0.115104 -0.06988,0.275429 0,0.205544 0.102772,0.320648 0.102772,0.115105 0.254875,0.180879 0.156213,0.06166 0.337092,0.09866 0.180879,0.03289 0.332981,0.07811 0.156214,0.04111 0.258986,0.110994 0.102772,0.06988 0.102772,0.205544 0,0.09866 -0.04933,0.164435 -0.04933,0.06166 -0.127437,0.09455 -0.074,0.03289 -0.164435,0.04522 -0.09044,0.01233 -0.172657,0.01233 -0.106883,0 -0.209655,-0.02055 -0.09866,-0.02055 -0.180879,-0.06577 -0.07811,-0.04933 -0.127437,-0.127437 -0.04933,-0.08222 -0.05344,-0.197322 z m 2.248838,-1.837564 v -0.427531 h -0.349425 v 0.427531 z m -0.349425,0.382312 v 2.125325 h 0.349425 V 96.18835 Z m 2.405052,0.859174 h -1.220932 q 0.0082,-0.123326 0.05344,-0.230209 0.04522,-0.110994 0.123326,-0.193212 0.07811,-0.08222 0.18499,-0.127437 0.110994,-0.04933 0.246653,-0.04933 0.131548,0 0.238431,0.04933 0.110993,0.04522 0.1891,0.127437 0.08222,0.07811 0.127437,0.189101 0.04933,0.110994 0.05755,0.23432 z m 0.337092,0.591967 h -0.345314 q -0.04522,0.209654 -0.1891,0.312426 -0.13977,0.102772 -0.361758,0.102772 -0.172657,0 -0.300094,-0.05755 -0.127437,-0.05755 -0.209655,-0.152102 -0.08222,-0.09866 -0.119215,-0.221988 -0.037,-0.127437 -0.03289,-0.267207 h 1.590911 q 0.0082,-0.193211 -0.037,-0.406977 -0.04111,-0.213766 -0.156213,-0.394645 -0.110994,-0.180878 -0.300095,-0.295983 -0.184989,-0.119216 -0.46864,-0.119216 -0.217877,0 -0.402866,0.08222 -0.180879,0.08222 -0.316538,0.230209 -0.131548,0.147992 -0.205544,0.349425 -0.074,0.201433 -0.074,0.443975 0.0082,0.242542 0.06988,0.448086 0.06577,0.205544 0.193212,0.353536 0.127437,0.147991 0.312426,0.230209 0.189101,0.08222 0.443976,0.08222 0.361757,0 0.600188,-0.180879 0.238431,-0.180879 0.308316,-0.538525 z m 0.419499,-1.451141 v 2.125325 h 0.349425 v -0.945502 q 0,-0.205544 0.04111,-0.361758 0.04111,-0.160324 0.131548,-0.271318 0.09044,-0.110994 0.238431,-0.168546 0.147992,-0.05755 0.357647,-0.05755 v -0.36998 q -0.283651,-0.0082 -0.468641,0.115105 -0.184989,0.123326 -0.312427,0.382312 h -0.0082 V 96.18835 Z m 3.177898,2.125325 V 96.18835 h -0.349424 v 1.200377 q 0,0.143881 -0.04111,0.267207 -0.037,0.119216 -0.115105,0.209655 -0.07811,0.09044 -0.197322,0.13977 -0.115105,0.04933 -0.275429,0.04933 -0.201433,0 -0.316538,-0.115104 -0.115104,-0.115105 -0.115104,-0.312427 V 96.18835 h -0.349425 v 1.397699 q 0,0.172657 0.03289,0.316538 0.037,0.13977 0.123326,0.242542 0.08633,0.102772 0.226099,0.160324 0.13977,0.05344 0.349424,0.05344 0.234321,0 0.406978,-0.09044 0.172656,-0.09455 0.28365,-0.291872 h 0.0082 v 0.337092 z m 0.563378,-2.125325 v 2.125325 h 0.349425 v -1.200377 q 0,-0.143881 0.037,-0.263096 0.04111,-0.123327 0.119215,-0.213766 0.07811,-0.09044 0.193211,-0.13977 0.119216,-0.04933 0.27954,-0.04933 0.201433,0 0.316538,0.115105 0.115105,0.115105 0.115105,0.312427 v 1.438808 h 0.349424 v -1.397699 q 0,-0.172657 -0.037,-0.312427 -0.03289,-0.143881 -0.119215,-0.246653 -0.08633,-0.102772 -0.226098,-0.160324 -0.13977,-0.05755 -0.349425,-0.05755 -0.472751,0 -0.690628,0.386423 h -0.0082 V 96.18835 Z m 4.156286,1.944446 V 96.18835 h -0.32887 v 0.304205 h -0.0041 q -0.09455,-0.176768 -0.263096,-0.263096 -0.168546,-0.09044 -0.36998,-0.09044 -0.275428,0 -0.464529,0.106883 -0.1891,0.102772 -0.304205,0.267208 -0.115105,0.160324 -0.164435,0.361757 -0.04933,0.197322 -0.04933,0.386423 0,0.217876 0.05755,0.415199 0.06166,0.193211 0.180879,0.341203 0.119216,0.14388 0.295984,0.230209 0.176767,0.08633 0.415198,0.08633 0.205544,0 0.386423,-0.09044 0.18499,-0.09455 0.275429,-0.291873 h 0.0082 v 0.13977 q 0,0.176768 -0.037,0.32476 -0.03289,0.147992 -0.110994,0.250764 -0.07811,0.106882 -0.197322,0.164435 -0.119216,0.06166 -0.291873,0.06166 -0.08633,0 -0.180878,-0.02055 -0.09455,-0.01644 -0.176768,-0.05755 -0.07811,-0.04111 -0.135659,-0.106883 -0.05344,-0.06577 -0.05755,-0.160324 h -0.349425 q 0.0082,0.172657 0.09044,0.291873 0.08222,0.119215 0.205544,0.193211 0.127437,0.074 0.27954,0.106883 0.156213,0.03289 0.304205,0.03289 0.509749,0 0.74818,-0.258986 0.238431,-0.258985 0.238431,-0.781067 z m -0.978389,-0.102772 q -0.172657,0 -0.287762,-0.06988 -0.115104,-0.074 -0.184989,-0.1891 -0.06988,-0.119216 -0.09866,-0.263097 -0.02878,-0.14388 -0.02878,-0.287761 0,-0.152103 0.03289,-0.291873 0.037,-0.13977 0.110994,-0.246652 0.07811,-0.106883 0.197322,-0.168546 0.119216,-0.06578 0.287762,-0.06578 0.164435,0 0.27954,0.06578 0.115104,0.06577 0.184989,0.176767 0.074,0.106883 0.106883,0.242542 0.03289,0.135659 0.03289,0.275429 0,0.147992 -0.037,0.295984 -0.03289,0.147991 -0.106882,0.267207 -0.074,0.115104 -0.197323,0.1891 -0.119215,0.06988 -0.291872,0.06988 z m 4.826543,0.283651 0.678295,-2.125325 h -0.361757 l -0.476862,1.738902 h -0.0082 L 93.121347,96.18835 h -0.382312 l -0.427531,1.738902 h -0.0082 L 91.822309,96.18835 h -0.386423 l 0.682406,2.125325 h 0.378201 l 0.427532,-1.689572 h 0.0082 l 0.431643,1.689572 z m 1.418437,-2.507637 v -0.427531 h -0.349424 v 0.427531 z m -0.349424,0.382312 v 2.125325 h 0.349424 V 96.18835 Z m 0.916915,0 v 2.125325 h 0.349425 v -0.945502 q 0,-0.205544 0.04111,-0.361758 0.04111,-0.160324 0.131548,-0.271318 0.09044,-0.110994 0.238431,-0.168546 0.147991,-0.05755 0.357646,-0.05755 v -0.36998 q -0.28365,-0.0082 -0.46864,0.115105 -0.18499,0.123326 -0.312427,0.382312 h -0.0082 V 96.18835 Z m 1.438996,-0.809843 v 2.935168 h 0.349425 v -0.805733 l 0.32887,-0.304205 0.727626,1.109938 h 0.443975 l -0.904394,-1.35248 0.842731,-0.772845 h -0.468641 l -0.970167,0.929059 v -1.738902 z m 2.635256,0.809843 v -0.637186 h -0.349425 v 0.637186 h -0.361757 v 0.308316 h 0.361757 v 1.352479 q 0,0.147992 0.02878,0.238432 0.02878,0.09044 0.08633,0.139769 0.06166,0.04933 0.156213,0.06988 0.09866,0.01644 0.23432,0.01644 h 0.267214 V 98.00535 h -0.16033 q -0.08221,0 -0.13566,-0.0041 -0.04933,-0.0082 -0.07811,-0.02878 -0.02878,-0.02056 -0.04111,-0.05755 -0.0082,-0.037 -0.0082,-0.09866 v -1.319592 h 0.42342 V 96.18835 Z m 0.925142,1.669017 v 0.456308 h 0.4563 v -0.456308 z"
       id="text2-6-4-6-3-4-2"
       class="claim"
       transform="scale(0.96794674,1.0331147)"
       aria-label="Damit Digitalisierung wirkt." />
    <path
       id="rect1-6-5-8"
       style="fill:#254c90;stroke-width:0.0365315"
       class="accent-fill"
       d="m 50.22171,84.263702 h 1.689894 v 13.53502 H 50.22171 Z" />
    <path
       id="rect1-9-6-9-0"
       style="fill:#254c90;stroke-width:0.0310801"
       class="accent-fill"
       d="m 64.342903,88.000229 h 1.689785 v 9.797522 h -1.689785 z" />
    <path
       id="circle2-5-3-7-5"
       style="fill:#ffffff;stroke-width:0.125373"
       class="accent-fill"
       d="m 65.73009,87.223732 a 1.38,1.3798021 0 0 1 -1.38,1.379802 1.38,1.3798021 0 0 1 -1.38,-1.379802 1.38,1.3798021 0 0 1 1.38,-1.379802 1.38,1.3798021 0 0 1 1.38,1.379802 z" />
    <path
       id="circle2-5-3-0"
       style="fill:#aaaaaa;fill-opacity:0.666667;stroke-width:0.124753"
       class="accent-fill"
       d="m 65.655913,87.663307 a 1.3663932,1.3798021 0 0 1 -1.366393,1.379802 1.3663932,1.3798021 0 0 1 -1.366393,-1.379802 1.3663932,1.3798021 0 0 1 1.366393,-1.379802 1.3663932,1.3798021 0 0 1 1.366393,1.379802 z" />
    <path
       class="accent"
       d="m 55.233081,97.001996 -2.21e-4,-0.5003 9.53e-4,-8.17056 0.0011,-1.09167 3.959334,5.1116 5.328088,-6.52834"
       id="path2-1-5-0"
       style="fill:none;stroke:#254c90;stroke-width:1.60275;stroke-linecap:square;stroke-linejoin:round;stroke-dasharray:none;stroke-opacity:1;paint-order:normal" />
    <path
       id="circle2-6-5-6"
       style="fill:#254c90;stroke-width:0.125446"
       class="accent-fill"
       d="m 66.100001,85.639999 a 1.38,1.3798021 0 0 1 -1.38,1.379802 1.38,1.3798021 0 0 1 -1.38,-1.379802 1.38,1.3798021 0 0 1 1.38,-1.379802 1.38,1.3798021 0 0 1 1.38,1.379802 z" />
    <path
       style="font-size:18.383px;font-family:Inter, sans-serif;-inkscape-font-specification:'Inter, sans-serif';text-align:center;letter-spacing:0.0364192px;word-spacing:0px;text-anchor:middle;fill:#203361;stroke-width:0.0827235;stroke-linecap:square;stroke-linejoin:round"
       d="m 96.313492,95.494159 q 0,0.780918 -0.368019,1.543885 -0.359043,0.762966 -1.014297,1.292554 -0.718086,0.574469 -1.678526,0.897608 -0.951464,0.323138 -2.297875,0.323138 -1.445148,0 -2.603061,-0.269282 -1.148938,-0.269282 -2.342755,-0.79887 v -2.226067 h 0.125665 q 1.014296,0.843751 2.342755,1.301531 1.328459,0.45778 2.495349,0.45778 1.651597,0 2.567157,-0.619349 0.924535,-0.619349 0.924535,-1.651598 0,-0.888631 -0.439827,-1.310507 -0.430852,-0.421875 -1.319483,-0.655253 -0.673206,-0.179522 -1.4631,-0.296211 -0.780919,-0.116688 -1.660574,-0.29621 -1.777263,-0.376995 -2.638966,-1.283579 -0.852727,-0.915559 -0.852727,-2.378659 0,-1.678526 1.41822,-2.746679 1.41822,-1.077129 3.599406,-1.077129 1.409243,0 2.585109,0.269283 1.175866,0.269282 2.082449,0.664229 v 2.100401 h -0.125665 q -0.762966,-0.646277 -2.01064,-1.068152 -1.238699,-0.430852 -2.540229,-0.430852 -1.427196,0 -2.297875,0.592421 -0.861703,0.592421 -0.861703,1.525932 0,0.834775 0.430851,1.310507 0.430852,0.475732 1.516957,0.727062 0.574468,0.125665 1.633645,0.305187 1.059177,0.179521 1.795215,0.368019 1.490028,0.394947 2.244018,1.193818 0.753991,0.79887 0.753991,2.235042 z"
       id="text31"
       transform="scale(1.0170928,0.98319445)"
       aria-label="S" />
  </g>
</svg>
