<?xml version="1.0" encoding="UTF-8" standalone="no"?>
<svg
   viewBox="0 0 398.46591 73.644066"
   version="1.1"
   id="svg2"
   width="398.46591"
   height="73.644066"
   xmlns="http://www.w3.org/2000/svg"
   xmlns:svg="http://www.w3.org/2000/svg">
  <defs
     id="defs2" />
  <style
     id="style1"><![CDATA[
    .brand { font-family: 'Inter', sans-serif; font-weight: 800; font-size: 72px; fill: #172554; }
    .claim { font-family: 'Inter', sans-serif; font-weight: 500; font-size: 22px; fill: #1e4fd6; }
  ]]></style>
  <g
     id="g5"
     style="display:inline"
     transform="translate(147.05545)">
    <path
       d="M 30.656407,53.296875 H 1.5687943e-4 v -9.28125 H 8.5782819 V 10.230469 H 1.5687943e-4 V 0.94921875 H 30.656407 V 10.230469 h -8.578125 v 33.785156 h 8.578125 z m 65.882812,0 H 83.109532 V 18.246094 L 73.406407,40.992187 H 64.090001 L 54.386876,18.246094 V 53.296875 H 41.660313 V 0.94921875 H 57.340001 L 69.117344,27.210937 80.859532,0.94921875 h 15.679687 z m 60.292971,0 h -13.5 v -23.0625 h -19.9336 v 23.0625 h -13.5 V 0.94921875 h 13.5 V 20.109375 h 19.9336 V 0.94921875 h 13.5 z m 41.66015,0 h -30.65625 v -9.28125 h 8.57813 V 10.230469 h -8.57813 V 0.94921875 h 30.65625 V 10.230469 h -8.57812 v 33.785156 h 8.57812 z M 251.4025,36.84375 q 0,7.734375 -6.57422,12.585937 -6.53906,4.816407 -17.78906,4.816407 -6.50391,0 -11.35547,-1.125 -4.81641,-1.160157 -9.03516,-2.917969 V 37.652344 h 1.47657 q 4.18359,3.339843 9.35156,5.132812 5.20312,1.792969 9.98437,1.792969 1.23047,0 3.23438,-0.210938 2.00391,-0.210937 3.26953,-0.703125 1.54688,-0.632812 2.53125,-1.582031 1.01953,-0.949219 1.01953,-2.8125 0,-1.722656 -1.47656,-2.953125 -1.44141,-1.265625 -4.25391,-1.933594 -2.95312,-0.703125 -6.25781,-1.300781 -3.26953,-0.632812 -6.15234,-1.582031 -6.60938,-2.144531 -9.52735,-5.800781 -2.88281,-3.691407 -2.88281,-9.140625 0,-7.3125002 6.53906,-11.917969 Q 220.07828,0 230.37906,0 q 5.16797,0 10.19532,1.0195312 5.0625,0.9843751 8.7539,2.4960938 v 12.058594 h -1.4414 q -3.16407,-2.53125 -7.76954,-4.21875 -4.57031,-1.7226565 -9.35156,-1.7226565 -1.6875,0 -3.375,0.2460938 -1.65234,0.2109377 -3.19922,0.8437497 -1.37109,0.527344 -2.35547,1.617188 -0.98437,1.054687 -0.98437,2.425781 0,2.074219 1.58203,3.199219 1.58203,1.089843 5.97656,2.003906 2.88282,0.597656 5.51953,1.160156 2.67188,0.5625 5.73047,1.546875 6.01172,1.96875 8.85938,5.378906 2.88281,3.375 2.88281,8.789063 z"
       id="text1-8-9"
       style="font-weight:800;font-size:72px;font-family:Inter, sans-serif;fill:#172554"
       class="brand"
       aria-label="IMHIS" />
  </g>
  <path
     d="m 158.4478,63.016573 q 0,1.850241 -0.80598,3.354132 -0.79692,1.50389 -2.12814,2.333308 -0.92371,0.574213 -2.06475,0.829418 -1.13199,0.255206 -2.98846,0.255206 h -3.40502 V 56.217166 h 3.3688 q 1.97419,0 3.13335,0.291664 1.16821,0.282549 1.97419,0.783845 1.3765,0.865877 2.14625,2.305966 0.76976,1.440089 0.76976,3.417932 z m -1.87458,-0.02734 q 0,-1.595035 -0.55241,-2.688773 -0.55241,-1.093739 -1.64818,-1.722639 -0.79692,-0.455723 -1.69346,-0.628899 -0.89653,-0.182289 -2.14625,-0.182289 h -1.6844 v 10.472544 h 1.6844 q 1.295,0 2.25493,-0.191404 0.96898,-0.191404 1.77496,-0.71093 1.0052,-0.647129 1.50328,-1.704409 0.50713,-1.05728 0.50713,-2.643201 z m 12.49717,6.799407 h -1.69346 v -1.084624 q -0.2264,0.154946 -0.6158,0.437495 -0.38035,0.273435 -0.74259,0.437496 -0.42562,0.209633 -0.97803,0.346351 -0.55242,0.145831 -1.295,0.145831 -1.36745,0 -2.31832,-0.911448 -0.95087,-0.911449 -0.95087,-2.324194 0,-1.15754 0.48902,-1.86847 0.49808,-0.720044 1.41272,-1.130196 0.92371,-0.410153 2.2187,-0.555984 1.295,-0.145833 2.78017,-0.218748 v -0.26432 q 0,-0.583327 -0.20828,-0.966136 -0.19923,-0.382808 -0.57958,-0.601556 -0.36224,-0.209633 -0.86937,-0.282549 -0.50713,-0.07291 -1.05954,-0.07291 -0.67014,0 -1.49423,0.18229 -0.82409,0.173175 -1.70251,0.510411 h -0.0906 v -1.740867 q 0.49807,-0.136717 1.43989,-0.300778 0.94182,-0.164061 1.85646,-0.164061 1.0686,0 1.85647,0.18229 0.79692,0.173175 1.3765,0.601556 0.57052,0.419267 0.86936,1.084624 0.29885,0.665357 0.29885,1.649722 z m -1.69346,-2.506484 v -2.834605 q -0.77881,0.04558 -1.83835,0.136717 -1.05049,0.09114 -1.66629,0.26432 -0.73353,0.209633 -1.18632,0.656243 -0.4528,0.437496 -0.4528,1.212227 0,0.874991 0.52524,1.3216 0.52525,0.437496 1.6029,0.437496 0.89654,0 1.63912,-0.346351 0.74259,-0.355464 1.3765,-0.847647 z m 19.73285,2.506484 h -1.70251 v -5.796814 q 0,-0.656242 -0.0634,-1.266914 -0.0543,-0.61067 -0.24451,-0.975249 -0.20828,-0.391923 -0.59769,-0.592441 -0.3894,-0.20052 -1.12293,-0.20052 -0.71542,0 -1.43084,0.36458 -0.71541,0.355465 -1.43083,0.911449 0.0272,0.209633 0.0453,0.492181 0.0181,0.273435 0.0181,0.54687 v 6.516858 h -1.70251 v -5.796814 q 0,-0.674471 -0.0634,-1.276028 -0.0543,-0.61067 -0.2445,-0.975249 -0.20829,-0.391923 -0.5977,-0.583327 -0.3894,-0.20052 -1.12293,-0.20052 -0.69731,0 -1.40367,0.346351 -0.6973,0.34635 -1.39461,0.884105 v 7.601482 h -1.70251 V 59.607755 h 1.70252 v 1.130196 q 0.79692,-0.665357 1.58478,-1.03905 0.79692,-0.373695 1.69346,-0.373695 1.03237,0 1.74779,0.437496 0.72447,0.437495 1.07765,1.212227 1.03238,-0.874991 1.88364,-1.2578 0.85125,-0.391923 1.82024,-0.391923 1.66629,0 2.45415,1.020823 0.79692,1.011708 0.79692,2.834605 z m 5.10754,-11.88529 h -1.91985 v -1.777325 h 1.91985 z m -0.10867,11.88529 h -1.70251 V 59.607755 h 1.70251 z m 8.62124,-0.09114 q -0.47997,0.127603 -1.05049,0.209633 -0.56147,0.08203 -1.00521,0.08203 -1.54856,0 -2.35454,-0.838534 -0.80597,-0.838532 -0.80597,-2.688773 v -5.414004 h -1.15011 v -1.44009 h 1.15011 v -2.92575 h 1.70251 v 2.92575 h 3.5137 v 1.44009 h -3.5137 v 4.639273 q 0,0.802075 0.0362,1.257799 0.0362,0.44661 0.25357,0.838533 0.19923,0.364579 0.54335,0.537754 0.35318,0.164061 1.0686,0.164061 0.41657,0 0.86937,-0.118488 0.45279,-0.127603 0.65203,-0.209634 h 0.0906 z m 20.10414,-6.680919 q 0,1.850241 -0.80598,3.354132 -0.79692,1.50389 -2.12814,2.333308 -0.92371,0.574213 -2.06475,0.829418 -1.13199,0.255206 -2.98845,0.255206 h -3.40503 V 56.217166 h 3.3688 q 1.97419,0 3.13335,0.291664 1.16821,0.282549 1.97419,0.783845 1.3765,0.865877 2.14625,2.305966 0.76976,1.440089 0.76976,3.417932 z m -1.87458,-0.02735 q 0,-1.595035 -0.55241,-2.688773 -0.55241,-1.093735 -1.64818,-1.722635 -0.79692,-0.455723 -1.69345,-0.628899 -0.89654,-0.182289 -2.14626,-0.182289 h -1.6844 v 10.472544 h 1.6844 q 1.295,0 2.25493,-0.191404 0.96898,-0.191404 1.77496,-0.71093 1.0052,-0.647129 1.50328,-1.704409 0.50713,-1.05728 0.50713,-2.643201 z m 6.46593,-5.085883 h -1.91985 v -1.777325 h 1.91985 z m -0.10867,11.885294 H 223.6142 V 59.607755 h 1.70251 z m 11.57347,-1.157539 q 0,2.588513 -1.16822,3.80074 -1.16821,1.212226 -3.5952,1.212226 -0.80597,0 -1.57573,-0.118488 -0.7607,-0.109374 -1.50328,-0.319006 v -1.749982 h 0.0906 q 0.41657,0.164061 1.32216,0.401038 0.90559,0.246091 1.81119,0.246091 0.86936,0 1.43989,-0.209634 0.57052,-0.209633 0.88748,-0.583327 0.31695,-0.355465 0.45279,-0.856761 0.13584,-0.501297 0.13584,-1.121082 V 68.40324 q -0.76975,0.619785 -1.47611,0.929678 -0.69731,0.300778 -1.78402,0.300778 -1.81118,0 -2.87978,-1.312487 -1.05954,-1.3216 -1.05954,-3.718709 0,-1.312487 0.36223,-2.260393 0.3713,-0.957021 1.00521,-1.649722 0.58863,-0.647129 1.43084,-1.002594 0.8422,-0.36458 1.67534,-0.36458 0.87842,0 1.46706,0.18229 0.59769,0.173175 1.25877,0.537755 l 0.10867,-0.437496 h 1.59385 z m -1.70252,-1.640609 v -5.550722 q -0.67919,-0.309892 -1.26783,-0.437495 -0.57957,-0.136717 -1.15915,-0.136717 -1.40367,0 -2.20965,0.947906 -0.80597,0.947907 -0.80597,2.752575 0,1.713523 0.59769,2.597628 0.59769,0.884106 1.98324,0.884106 0.74259,0 1.48517,-0.282549 0.75164,-0.291663 1.3765,-0.774732 z m 6.8825,-9.087142 h -1.91985 v -1.777325 h 1.91985 z m -0.10867,11.88529 h -1.70251 V 59.607755 h 1.70251 z m 8.62124,-0.09114 q -0.47997,0.127603 -1.05049,0.209633 -0.56147,0.08203 -1.0052,0.08203 -1.54857,0 -2.35455,-0.838534 -0.80597,-0.838532 -0.80597,-2.688773 v -5.414004 h -1.15011 v -1.44009 h 1.15011 v -2.92575 h 1.70251 v 2.92575 h 3.5137 v 1.44009 h -3.5137 v 4.639273 q 0,0.802075 0.0362,1.257799 0.0362,0.44661 0.25356,0.838533 0.19922,0.364579 0.54335,0.537754 0.35318,0.164061 1.0686,0.164061 0.41658,0 0.86937,-0.118488 0.4528,-0.127603 0.65203,-0.209634 h 0.0905 z m 9.91623,0.09114 h -1.69346 v -1.084624 q -0.2264,0.154946 -0.6158,0.437495 -0.38035,0.273435 -0.74259,0.437496 -0.42563,0.209633 -0.97803,0.346351 -0.55242,0.145831 -1.295,0.145831 -1.36745,0 -2.31832,-0.911448 -0.95087,-0.911449 -0.95087,-2.324194 0,-1.15754 0.48902,-1.86847 0.49807,-0.720044 1.41272,-1.130196 0.92371,-0.410153 2.2187,-0.555984 1.295,-0.145833 2.78017,-0.218748 v -0.26432 q 0,-0.583327 -0.20828,-0.966136 -0.19924,-0.382808 -0.57958,-0.601556 -0.36224,-0.209633 -0.86938,-0.282549 -0.50713,-0.07291 -1.05954,-0.07291 -0.67013,0 -1.49422,0.18229 -0.82409,0.173175 -1.70252,0.510411 h -0.0905 v -1.740867 q 0.49807,-0.136717 1.43989,-0.300778 0.94181,-0.164061 1.85645,-0.164061 1.06861,0 1.85647,0.18229 0.79693,0.173175 1.37651,0.601556 0.57052,0.419267 0.86936,1.084624 0.29885,0.665357 0.29885,1.649722 z m -1.69346,-2.506484 v -2.834605 q -0.77881,0.04558 -1.83835,0.136717 -1.05049,0.09114 -1.66629,0.26432 -0.73353,0.209633 -1.18632,0.656243 -0.4528,0.437496 -0.4528,1.212227 0,0.874991 0.52524,1.3216 0.52525,0.437496 1.6029,0.437496 0.89653,0 1.63912,-0.346351 0.74259,-0.355464 1.3765,-0.847647 z m 6.69233,2.506484 h -1.70252 V 55.606496 h 1.70252 z m 5.1981,-11.88529 h -1.91987 v -1.777325 h 1.91987 z m -0.10867,11.88529 h -1.70252 V 59.607755 h 1.70252 z m 10.59542,-2.934865 q 0,1.394517 -1.15011,2.287736 -1.14104,0.893221 -3.12429,0.893221 -1.12292,0 -2.06474,-0.264321 -0.93276,-0.273435 -1.56668,-0.592442 V 67.25481 h 0.0905 q 0.80598,0.61067 1.79307,0.97525 0.9871,0.355465 1.89269,0.355465 1.12294,0 1.75685,-0.364579 0.63391,-0.36458 0.63391,-1.148426 0,-0.601556 -0.34412,-0.911449 -0.34412,-0.309892 -1.32217,-0.52864 -0.36224,-0.08203 -0.95087,-0.191404 -0.57958,-0.109374 -1.05954,-0.236977 -1.33122,-0.355465 -1.89269,-1.039051 -0.55241,-0.692701 -0.55241,-1.695295 0,-0.6289 0.25357,-1.184883 0.26262,-0.555984 0.78787,-0.993479 0.50712,-0.428381 1.28593,-0.674472 0.78787,-0.255206 1.75685,-0.255206 0.90559,0 1.8293,0.227863 0.93276,0.218748 1.54856,0.537754 v 1.832012 h -0.0906 q -0.65203,-0.483068 -1.58478,-0.81119 -0.93276,-0.337235 -1.8293,-0.337235 -0.93276,0 -1.57573,0.364579 -0.64298,0.355465 -0.64298,1.066395 0,0.6289 0.38941,0.947906 0.38035,0.319008 1.23161,0.519526 0.4709,0.109374 1.05048,0.218748 0.58864,0.109374 0.97804,0.200519 1.18633,0.273434 1.8293,0.938792 0.64297,0.674472 0.64297,1.786439 z m 4.26533,-8.950425 h -1.91985 v -1.777325 h 1.91985 z m -0.10867,11.88529 h -1.70251 V 59.607755 h 1.70251 z m 11.8361,-4.912709 h -7.45303 q 0,0.938792 0.28073,1.640608 0.28074,0.692701 0.76976,1.139311 0.47091,0.437495 1.11387,0.656243 0.65204,0.218748 1.43084,0.218748 1.03238,0 2.07381,-0.410152 1.05049,-0.419266 1.49423,-0.820304 h 0.0906 v 1.86847 q -0.86031,0.364579 -1.75685,0.61067 -0.89653,0.246091 -1.88362,0.246091 -2.51755,0 -3.93028,-1.367172 -1.41272,-1.376288 -1.41272,-3.901001 0,-2.497368 1.34934,-3.964802 1.35838,-1.467432 3.56803,-1.467432 2.04663,0 3.15146,1.203113 1.11388,1.203111 1.11388,3.417932 z m -1.65724,-1.312485 q -0.009,-1.348944 -0.67919,-2.087218 -0.66108,-0.738274 -2.01947,-0.738274 -1.36744,0 -2.18248,0.81119 -0.80598,0.811189 -0.91465,2.014302 z m 10.55015,-2.087218 h -0.0906 q -0.38035,-0.09114 -0.74258,-0.127602 -0.35318,-0.04558 -0.8422,-0.04558 -0.78787,0 -1.5214,0.355465 -0.73353,0.34635 -1.41272,0.902334 v 7.227788 h -1.70251 v -10.18088 h 1.70251 v 1.503891 q 1.01426,-0.820304 1.78401,-1.15754 0.77882,-0.346351 1.5848,-0.346351 0.44373,0 0.64296,0.02735 0.19923,0.01823 0.59769,0.08203 z m 9.98867,8.312412 h -1.70251 v -1.130196 q -0.86031,0.683586 -1.64818,1.048166 -0.78787,0.364579 -1.73874,0.364579 -1.59384,0 -2.48132,-0.97525 -0.88748,-0.984364 -0.88748,-2.880178 V 59.60776 h 1.70251 v 5.796814 q 0,0.774732 0.0725,1.330715 0.0725,0.546869 0.3079,0.938792 0.24451,0.401037 0.63392,0.583327 0.3894,0.18229 1.13198,0.18229 0.66109,0 1.43989,-0.346351 0.78787,-0.34635 1.46707,-0.884105 V 59.60776 h 1.70251 z m 11.80893,0 h -1.70252 v -5.796814 q 0,-0.701815 -0.0815,-1.312485 -0.0815,-0.619786 -0.29885,-0.966136 -0.2264,-0.382808 -0.65202,-0.565099 -0.42563,-0.191404 -1.10483,-0.191404 -0.6973,0 -1.458,0.346351 -0.76069,0.34635 -1.458,0.884105 v 7.601482 h -1.70252 V 59.607755 h 1.70252 v 1.130196 q 0.79692,-0.665357 1.64818,-1.03905 0.85125,-0.373695 1.74778,-0.373695 1.63913,0 2.49945,0.993479 0.86031,0.993479 0.86031,2.861949 z m 11.48291,-1.157539 q 0,2.588513 -1.16822,3.80074 -1.16821,1.212226 -3.5952,1.212226 -0.80597,0 -1.57573,-0.118488 -0.76069,-0.109374 -1.50328,-0.319006 v -1.749982 h 0.0906 q 0.41657,0.164061 1.32216,0.401038 0.90559,0.246091 1.81119,0.246091 0.86937,0 1.43989,-0.209634 0.57053,-0.209633 0.88748,-0.583327 0.31696,-0.355465 0.45279,-0.856761 0.13584,-0.501297 0.13584,-1.121082 V 68.40324 q -0.76975,0.619785 -1.47611,0.929678 -0.69731,0.300778 -1.78402,0.300778 -1.81118,0 -2.87979,-1.312487 -1.05953,-1.3216 -1.05953,-3.718709 0,-1.312487 0.36224,-2.260393 0.37129,-0.957021 1.0052,-1.649722 0.58864,-0.647129 1.43083,-1.002594 0.8422,-0.36458 1.67535,-0.36458 0.87843,0 1.46706,0.18229 0.59769,0.173175 1.25877,0.537755 l 0.10867,-0.437496 h 1.59385 z m -1.70252,-1.640609 v -5.550722 q -0.67919,-0.309892 -1.26782,-0.437495 -0.57958,-0.136717 -1.15916,-0.136717 -1.40367,0 -2.20965,0.947906 -0.80598,0.947907 -0.80598,2.752575 0,1.713523 0.59769,2.597628 0.59769,0.884106 1.98325,0.884106 0.74258,0 1.48518,-0.282549 0.75163,-0.291663 1.37649,-0.774732 z m 24.29704,-7.382734 -2.63528,10.180882 h -1.57572 l -2.59905,-7.847573 -2.58094,7.847573 h -1.56667 L 348.32327,59.60776 h 1.77496 l 1.85647,7.884031 2.5266,-7.884031 h 1.40367 l 2.58999,7.884031 1.75685,-7.884031 z m 4.28344,-1.704408 h -1.91986 v -1.777325 h 1.91986 z m -0.10867,11.88529 h -1.70251 V 59.607755 h 1.70251 z m 9.68077,-8.312412 h -0.0906 q -0.38035,-0.09114 -0.74258,-0.127602 -0.35319,-0.04558 -0.8422,-0.04558 -0.78787,0 -1.5214,0.355465 -0.73353,0.34635 -1.41272,0.902334 v 7.227788 h -1.70246 v -10.18088 h 1.70251 v 1.503891 q 1.01426,-0.820304 1.78401,-1.15754 0.77881,-0.346351 1.58479,-0.346351 0.44374,0 0.64297,0.02735 0.19923,0.01823 0.59769,0.08203 z m 10.7856,8.312412 h -2.24586 l -4.05705,-4.456984 -1.10482,1.05728 v 3.399704 h -1.70252 V 55.606496 h 1.70252 v 9.096257 l 4.91736,-5.094998 h 2.14625 l -4.70002,4.703076 z m 7.04551,-0.09114 q -0.47996,0.127603 -1.05048,0.209633 -0.56147,0.08203 -1.00521,0.08203 -1.54856,0 -2.35454,-0.838534 -0.80598,-0.838532 -0.80598,-2.688773 v -5.414004 h -1.15009 v -1.44009 h 1.15009 v -2.92575 h 1.70252 v 2.92575 h 3.51369 v 1.44009 h -3.51369 v 4.639273 q 0,0.802075 0.0362,1.257799 0.0362,0.44661 0.25357,0.838533 0.19923,0.364579 0.54336,0.537754 0.35318,0.164061 1.06859,0.164061 0.41657,0 0.86937,-0.118488 0.4528,-0.127603 0.65203,-0.209634 h 0.0906 z m 4.83587,0.09114 h -2.16436 v -2.597629 h 2.16436 z"
     id="text2-6-4"
     style="font-weight:500;font-size:18.6064px;font-family:Inter, sans-serif;-inkscape-font-specification:'Inter, sans-serif, Medium';fill:#1d2c67;stroke-width:0.996782"
     class="claim"
     aria-label="Damit Digitalisierung wirkt." />
  <path
     d="m 1.9739683,37.299827 c 34.4558597,-38.7628447 103.3675917,-38.7628447 137.8234517,0 -34.45586,38.762846 -103.367592,38.762846 -137.8234517,0 z"
     stroke="#172554"
     stroke-width="12"
     fill="none"
     stroke-linecap="round"
     stroke-linejoin="round"
     id="path1"
     style="stroke:#172554;stroke-width:3.94807;stroke-dasharray:none;stroke-opacity:1" />
  <path
     id="polyline1"
     style="fill:none;stroke:#172554;stroke-width:2.13923;stroke-linecap:round;stroke-linejoin:round"
     d="M 43.383614,46.874854 61.707132,30.647072 81.10751,46.615889 97.316371,24.852315" />
  <path
     id="circle2-2"
     style="fill:#172554;stroke-width:0"
     d="m 100.07926,25.81703 a 3.76861,3.76861 0 0 1 -3.768606,3.76861 3.76861,3.76861 0 0 1 -3.76861,-3.76861 3.76861,3.76861 0 0 1 3.76861,-3.76861 3.76861,3.76861 0 0 1 3.768606,3.76861 z" />
  <path
     id="circle2-2-0"
     style="fill:#172554;stroke-width:0"
     d="m 84.645487,45.145275 a 3.76861,3.76861 0 0 1 -3.76861,3.76861 3.76861,3.76861 0 0 1 -3.76861,-3.76861 3.76861,3.76861 0 0 1 3.76861,-3.76861 3.76861,3.76861 0 0 1 3.76861,3.76861 z" />
  <path
     id="circle2-2-6"
     style="fill:#172554;stroke-width:0"
     d="m 65.866282,32.010941 a 3.76861,3.76861 0 0 1 -3.76861,3.76861 3.76861,3.76861 0 0 1 -3.76861,-3.76861 3.76861,3.76861 0 0 1 3.76861,-3.76861 3.76861,3.76861 0 0 1 3.76861,3.76861 z" />
  <path
     id="circle2-2-64"
     style="fill:#172554;stroke-width:0"
     d="m 49.180304,45.206371 a 3.76861,3.76861 0 0 1 -3.76861,3.76861 3.76861,3.76861 0 0 1 -3.76861,-3.76861 3.76861,3.76861 0 0 1 3.76861,-3.76861 3.76861,3.76861 0 0 1 3.76861,3.76861 z" />
</svg>
